<svg width="60" height="45" viewBox="0 0 60 45" fill="none" xmlns="http://www.w3.org/2000/svg">
<path d="M54.375 0H5.625C2.51953 0 0 2.51953 0 5.625V39.375C0 42.4805 2.51953 45 5.625 45H54.375C57.4805 45 60 42.4805 60 39.375V5.625C60 2.51953 57.4805 0 54.375 0ZM5.625 3.75H30H54.375C55.4063 3.75 56.25 4.59375 56.25 5.625V10.4766C53.6836 12.6445 50.0156 15.6328 38.6016 24.6914C36.6211 26.2617 32.7188 30.0469 30 30C27.2812 30.0469 23.3672 26.2617 21.3984 24.6914C9.98438 15.6328 6.31641 12.6445 3.75 10.4766V5.625C3.75 4.59375 4.59375 3.75 5.625 3.75ZM54.375 41.25H5.625C4.59375 41.25 3.75 40.4063 3.75 39.375V15.3516C6.42187 17.543 10.6406 20.9297 19.0664 27.6211C21.4687 29.543 25.7109 33.7734 30 33.75C34.2656 33.7852 38.4727 29.5898 40.9336 27.6211C49.3594 20.9297 53.5781 17.543 56.25 15.3516V39.375C56.25 40.4063 55.4063 41.25 54.375 41.25Z" fill="#B69037"/>
</svg>
