<svg width="61" height="61" fill="none" xmlns="http://www.w3.org/2000/svg">
  <path fill-rule="evenodd" clip-rule="evenodd" d="m5.11293 32.1799 22.67597 26.759c.7266.8572 1.6875 1.2991 2.6485 1.2991.9609 0 1.9219-.4285 2.6484-1.2991l22.676-26.759c6.6095-7.7679 6.2228-20.6519-1.1367-27.83053-5.7438-5.58872-14.0467-5.317265-19.9734-.12084-.6634.58169-1.297 1.22509-1.894 1.92888l-2.3086 2.73216-2.3086-2.71876c-.5466-.64608-1.1567-1.26275-1.8198-1.8375-5.1377-4.453097-13.4568-6.38939-20.0476.01606C-1.08635 11.528-1.47307 24.412 5.11293 32.1799ZM37.1556 11.0295l-6.6957 7.9242-6.7229-7.9173c-3.3123-3.91537-9.2822-5.44497-13.4919-1.35848C5.61396 14.2002 5.35408 22.405 9.5117 27.3087l20.9257 24.6936 20.9289-24.6974.0044-.0051c4.1721-4.9033 3.9123-13.1023-.7189-17.62317-3.6665-3.56443-9.5654-3.27734-13.4925 1.34857l-.0037.0043Z" fill="#B69037"/>
</svg>
