<svg width="61" height="52" fill="none" xmlns="http://www.w3.org/2000/svg">
  <path d="M60.6614 10.5798V6.07983c0-.82842-.6715-1.5-1.5-1.5H33.7649v-2.5c0-.82842-.6716-1.499996-1.5-1.499996h-4.2414c-.8284 0-1.5.671576-1.5 1.499996v2.5H2.16144c-.82843 0-1.500002.67158-1.500002 1.5v4.49997c0 .8285.671572 1.5 1.500002 1.5H26.5235v3c0 .8285.6716 1.5 1.5 1.5h4.2414c.8284 0 1.5-.6715 1.5-1.5v-3h25.3965c.8285 0 1.5-.6715 1.5-1.5ZM.661442 27.5798v-4.5c0-.8284.671568-1.5 1.499998-1.5H45.1442v-2.5c0-.8284.6716-1.5 1.5-1.5h4.2414c.8284 0 1.5.6716 1.5 1.5v2.5h6.7758c.8285 0 1.5.6716 1.5 1.5v4.5c0 .8285-.6715 1.5-1.5 1.5h-6.7758v3c0 .8285-.6716 1.5-1.5 1.5h-4.2414c-.8284 0-1.5-.6715-1.5-1.5v-3H2.16144c-.82843 0-1.499998-.6715-1.499998-1.5ZM60.6614 45.5798v-4.5c0-.8284-.6715-1.5-1.5-1.5H16.1787v-2.5c0-.8284-.6716-1.5-1.5-1.5h-4.2414c-.82842 0-1.49999.6716-1.49999 1.5v2.5H2.16144c-.82843 0-1.500002.6716-1.500002 1.5v4.5c0 .8285.671572 1.5 1.500002 1.5h6.77587v3c0 .8285.67157 1.5 1.49999 1.5h4.2414c.8284 0 1.5-.6715 1.5-1.5v-3h42.9827c.8285 0 1.5-.6715 1.5-1.5Z" fill="#B69037"/>
</svg>
