<svg width="63" height="61" fill="none" xmlns="http://www.w3.org/2000/svg">
  <path d="M31.0133.564453C13.8052.564453.641602 13.6288.641602 30.8369c0 13.7591 8.659918 25.5331 21.029498 29.677 1.588.2854 2.1463-.6948 2.1463-1.5012 0-.7692-.0372-5.0123-.0372-7.6178 0 0-8.6847 1.861-10.5085-3.6972 0 0-1.4144-3.6103-3.4491-4.5409 0 0-2.84115-1.9478.1985-1.9106 0 0 3.0893.2481 4.789 3.201 2.7171 4.789 7.2704 3.4118 9.0445 2.593.2854-1.9851 1.0918-3.3623 1.9851-4.1811-6.9354-.7692-13.9328-1.7742-13.9328-13.7095 0-3.4118.943-5.124 2.928-7.3076-.3225-.8064-1.3771-4.1314.3226-8.4241 2.593-.8065 8.5607 3.3498 8.5607 3.3498 2.4813-.6948 5.1488-1.0546 7.7914-1.0546 2.6427 0 5.3101.3598 7.7915 1.0546 0 0 5.9676-4.1687 8.5606-3.3498 1.6997 4.3051.6452 7.6177.3226 8.4241 1.9851 2.196 3.2009 3.9082 3.2009 7.3076 0 11.9725-7.3075 12.9279-14.2429 13.7095 1.1414.9801 2.1091 2.8411 2.1091 5.7567 0 4.1811-.0372 9.3547-.0372 10.3721 0 .8064.5707 1.7865 2.1464 1.5012C53.7673 56.37 62.1791 44.596 62.1791 30.8369c0-17.2081-13.9576-30.272447-31.1658-30.272447Z" fill="#B69037"/>
</svg>
