<svg width="42" height="61" viewBox="0 0 42 61" fill="none" xmlns="http://www.w3.org/2000/svg">
  <path d="M21.0609 0.414551C11.7071 0.414551 5.64863 4.24693 0.892102 11.0817C0.0292508 12.3215 0.295266 14.0214 1.4989 14.9341L6.55413 18.7672C7.76972 19.6888 9.49929 19.4733 10.451 18.2811C13.3864 14.6036 15.5639 12.4863 20.1491 12.4863C23.7542 12.4863 28.2134 14.8065 28.2134 18.3024C28.2134 20.9452 26.0318 22.3025 22.4721 24.2982C18.3209 26.6255 12.8276 29.5219 12.8276 36.7675V37.9146C12.8276 39.4679 14.0868 40.7271 15.6401 40.7271H24.1328C25.6862 40.7271 26.9453 39.4679 26.9453 37.9146V37.238C26.9453 32.2154 41.6252 32.0062 41.6252 18.4146C41.6253 8.17893 31.0079 0.414551 21.0609 0.414551ZM19.8866 44.1793C15.4105 44.1793 11.7689 47.8209 11.7689 52.297C11.7689 56.773 15.4105 60.4146 19.8866 60.4146C24.3626 60.4146 28.0043 56.7729 28.0043 52.2969C28.0043 47.8208 24.3626 44.1793 19.8866 44.1793Z" fill="#B69037"/>
</svg>
