<svg width="18" height="24" fill="none" xmlns="http://www.w3.org/2000/svg">
  <path d="M5.05 20.753A3.252 3.252 0 008.3 24a3.252 3.252 0 003.25-3.247 3.252 3.252 0 00-3.25-3.247 3.252 3.252 0 00-3.25 3.247zM11.126 14.823v-.094c0-2.009 5.877-2.092 5.877-7.529 0-4.094-4.25-7.2-8.233-7.2C4.92 0 2.463 1.62.535 4.5a.848.848 0 00.192 1.148l2.451 1.857a.848.848 0 001.178-.15C5.618 5.757 6.483 4.83 8.405 4.83c1.443 0 3.228.928 3.228 2.326 0 1.057-.873 1.6-2.298 2.398-1.662.931-3.862 2.09-3.862 4.988v.282c0 .468.38.848.848.848h3.957c.468 0 .848-.38.848-.848z" fill="#000"/>
</svg>
