<svg width="61" height="61" fill="none" xmlns="http://www.w3.org/2000/svg">
  <path d="M56.5356.564453H5.09361C2.73647.564453.821289 2.50642.821289 4.89035V56.2386c0 2.3839 1.915181 4.3259 4.272321 4.3259H56.5356c2.3571 0 4.2857-1.942 4.2857-4.3259V4.89035c0-2.38393-1.9286-4.325897-4.2857-4.325897ZM18.9552 51.993h-8.8928V23.3591h8.9062V51.993h-.0134Zm-4.4464-32.5446c-2.8527 0-5.15626-2.317-5.15626-5.1563 0-2.8393 2.30356-5.15622 5.15626-5.15622 2.8393 0 5.1562 2.31692 5.1562 5.15622 0 2.8527-2.3035 5.1563-5.1562 5.1563ZM52.29 51.993h-8.8928V38.0645c0-3.3215-.067-7.5938-4.6206-7.5938-4.6339 0-5.3437 3.6161-5.3437 7.3527V51.993H24.54V23.3591h8.5313v3.9107h.1205c1.192-2.25 4.0982-4.6205 8.4241-4.6205 9 0 10.6741 5.933 10.6741 13.6473V51.993Z" fill="#B69037"/>
</svg>
