<svg width="60" height="61" fill="none" xmlns="http://www.w3.org/2000/svg">
  <path d="M56.25 8.43018H44.9426C40.4344 3.74033 34.1719.930176 27.4324.930176h-3.9937C14.952.930176 7.25625 5.46533 3.14297 12.3021 1.37227 12.6032 0 14.0739 0 15.9302v7.5c0 2.0707 1.6793 3.75 3.75 3.75h21.5625c.0844 0 .1383-.0692.2168-.0903 2.2254 2.3555 5.4223 3.8403 8.857 3.8403H56.25c2.0707 0 3.75-1.6793 3.75-3.75v-15c0-2.0707-1.6793-3.75002-3.75-3.75002ZM3.75 23.4302v-7.5h19.4133c-.4805 1.3547-.7278 2.8183-.6481 4.3547.0586 1.1132.3387 2.1527.7149 3.1453H3.75Zm21.6293-11.2219c-.0258-.0023-.041-.0281-.0668-.0281H7.86094C11.4738 7.65908 17.1246 4.68018 23.4398 4.68018h3.9938c4.2527 0 8.2957 1.38164 11.6977 3.75H33.75c-3.3363 0-6.3105 1.47187-8.3707 3.77812ZM45 27.1802H33.75c-4.1355 0-7.5-3.3645-7.5-7.5 0-4.1356 3.3645-7.5 7.5-7.5H45v15Zm11.25 0h-7.5v-15h7.5v15Zm-50.83711 3.75H1.31953C2.59219 34.5091 4.72617 37.679 7.5 40.1669v19.8258c0 .5179.41953.9375.9375.9375h1.875c.518 0 .9375-.4196.9375-.9375V38.4935l-1.2457-1.118c-2.02383-1.8152-3.53321-4.0324-4.59141-6.4453ZM45 34.6802v11.25c0 2.0672-1.6828 3.75-3.75 3.75h-7.5v10.3125c0 .5179.4195.9375.9375.9375h1.875c.518 0 .9375-.4196.9375-.9375v-6.5625h3.75c4.1426 0 7.5-3.3574 7.5-7.5v-7.5h3.7453c2.1621 0 3.7254-1.7754 3.7266-3.75H45Z" fill="#B69037"/>
</svg>
