<svg width="70" height="61" viewBox="0 0 70 61" fill="none" xmlns="http://www.w3.org/2000/svg">
  <path d="M68.3503 44.6206C69.6056 45.8759 69.6056 47.9111 68.3503 49.1662L57.636 59.8784C55.6257 61.8887 52.1488 60.4797 52.1488 57.6055V52.2506H44.2758C44.0554 52.2506 43.8374 52.2053 43.6353 52.1174C43.4332 52.0296 43.2513 51.9012 43.1009 51.7401L33.6514 41.6156L40.7942 33.9625L47.8631 41.5363H52.1488V36.1817C52.1488 33.3106 55.6233 31.8963 57.636 33.9088L68.3503 44.6206ZM2.32736 20.1077H13.5774L20.6463 27.6815L27.7891 20.0285L18.3396 9.90398C18.1892 9.74287 18.0073 9.6144 17.8052 9.52657C17.6031 9.43874 17.385 9.39343 17.1646 9.39345H2.32736C1.43981 9.39345 0.720215 10.113 0.720215 11.0006V18.5006C0.720215 19.3881 1.43981 20.1077 2.32736 20.1077ZM52.1488 20.1077V25.4627C52.1488 28.3369 55.6257 29.7458 57.636 27.7356L68.3503 17.0235C69.6056 15.7682 69.6056 13.733 68.3503 12.4778L57.636 1.76608C55.6233 -0.246602 52.1488 1.16782 52.1488 4.03885V9.39345H44.2758C44.0554 9.39347 43.8374 9.4388 43.6353 9.52663C43.4332 9.61445 43.2513 9.7429 43.1009 9.90398L13.5774 41.5363H2.32736C1.43981 41.5363 0.720215 42.2559 0.720215 43.1435V50.6435C0.720215 51.531 1.43981 52.2506 2.32736 52.2506H17.1646C17.6101 52.2506 18.0356 52.0657 18.3396 51.7401L47.8631 20.1077H52.1488Z" fill="#000"/>
</svg>
