<svg width="25" height="25" fill="none" xmlns="http://www.w3.org/2000/svg">
  <path d="M24.02 18.02c.439.502.439 1.316 0 1.818l-3.75 4.284c-.704.805-1.921.241-1.921-.909v-2.142h-2.756a.503.503 0 01-.224-.053.57.57 0 01-.187-.15l-3.308-4.05 2.5-3.062 2.475 3.03h1.5v-2.142c0-1.149 1.216-1.714 1.92-.91l3.75 4.285zM.91 8.213H4.85l2.474 3.03 2.5-3.061-3.308-4.05a.57.57 0 00-.187-.151.503.503 0 00-.224-.053H.911c-.31 0-.562.287-.562.642v3c0 .355.251.643.562.643zm17.438 0v2.142c0 1.15 1.216 1.713 1.92.91l3.75-4.285c.44-.503.44-1.317 0-1.819L20.27.878c-.704-.805-1.92-.24-1.92.909v2.142h-2.756a.503.503 0 00-.224.053.57.57 0 00-.187.15L4.849 16.787H.91c-.31 0-.562.288-.562.643v3c0 .355.251.642.562.642h5.193a.532.532 0 00.411-.204L16.85 8.214h1.5z" fill="#000"/>
</svg>
