<svg width="61" height="61" fill="none" xmlns="http://www.w3.org/2000/svg">
  <path d="M59.9775 52.7559 48.293 41.0735c-.5274-.5273-1.2423-.8203-1.9923-.8203h-1.9103c3.2346-4.1363 5.1566-9.3389 5.1566-14.9985C49.547 11.7912 38.6361.88208 25.1702.88208 11.7044.88208.793457 11.7912.793457 25.2547c0 13.4635 10.910943 24.3726 24.376743 24.3726 5.6606 0 10.8641-1.9217 15.0011-5.1557v1.9099c0 .75.293 1.4647.8204 1.992L52.6762 60.056c1.1016 1.1014 2.883 1.1014 3.9729 0l3.3167-3.3161c1.1016-1.1014 1.1016-2.8825.0117-3.984ZM25.1702 40.2532c-8.2857 0-15.0011-6.7024-15.0011-14.9985 0-8.2843 6.7037-14.9985 15.0011-14.9985 8.2858 0 15.0011 6.7024 15.0011 14.9985 0 8.2843-6.7036 14.9985-15.0011 14.9985Z" fill="#000"/>
</svg>
