<svg width="60" height="60" fill="none" xmlns="http://www.w3.org/2000/svg">
  <path fill-rule="evenodd" clip-rule="evenodd" d="M35.9573 5.36735 12.2778 11.5828c-.5446.143-.8677.6913-.7218 1.2248l8.1397 29.7581c9.2522.8319 19.242-1.3889 25.943-5.6675l-2.5564-9.346c-.1458-.5332.1697-1.079.7045-1.2188l2.9967-.7829c.5339-.1395 1.0844.1787 1.23.711l1.9465 7.1164c4.6678-4.9771 3.0573-9.5437-5.2767-11.7819-.511-.1373-1.2648.0186-1.6606.331l-3.7141 3.0698c-.6351.5013-2.0963.1143-2.2603-.3763l-2.3526-8.9065c-.0993-.2972.3215-.6471.9534-.7926l14.8485-1.9034c1.0584-.2437 2.3488.9161 1.7324 1.4309l-3.9364 3.2873c-.37.309-.2484.6481.256.7786 11.1881 2.8946 14.0558 11.4955 5.5368 19.0916-.7749.6117-1.607 1.1982-2.4889 1.7582l1.8044 6.5968c.8756 3.2008-1.0635 6.4908-4.3309 7.3484l-23.6795 6.2155c-3.2675.8577-6.626-1.0418-7.5015-4.2426l-2.411-8.8142c-.9776-.1476-1.9337-.3275-2.8636-.5408-15.73972-3.0111-14.62153-14.8429-3.32767-22.0944l-2.66194-9.7316c-.87551-3.2008 1.06353-6.49086 4.33101-7.34851L34.6363.537721c3.2674-.857651 6.6259 1.041849 7.5014 4.242639l1.1544 4.46776c.1375.53215-.1816 1.07108-.7144 1.20668l-3.0014.7637c-.5378.1368-1.0887-.1891-1.2275-.7263l-1.1412-4.41774c-.146-.53347-.7057-.85005-1.2503-.70711ZM14.1646 41.6629c-9.64515-2.421-8.99323-8.2067-3.4417-12.5826l3.4417 12.5826Zm8.6556 12.3257c.1459.5334.7057.85 1.2502.7071l23.6795-6.2155c.5446-.1429.8678-.6913.7218-1.2247l-1.4783-5.4047c-7.5995 3.4976-17.2999 5.3998-26.0972 5.1039l1.924 7.0339Z" fill="#B69037"/>
</svg>
