<?xml version="1.0" standalone="no"?>
<!DOCTYPE svg PUBLIC "-//W3C//DTD SVG 20010904//EN"
 "http://www.w3.org/TR/2001/REC-SVG-20010904/DTD/svg10.dtd">
<svg version="1.0" xmlns="http://www.w3.org/2000/svg"
 width="260.000000pt" height="260.000000pt" viewBox="0 0 260.000000 260.000000"
 preserveAspectRatio="xMidYMid meet">
<metadata>
Created by potrace 1.14, written by Peter Selinger 2001-2017
</metadata>
<g transform="translate(0.000000,260.000000) scale(0.100000,-0.100000)"
fill="#000000" stroke="none">
<path d="M1126 2434 c-367 -66 -677 -301 -841 -638 -215 -440 -138 -952 196
-1310 133 -142 312 -255 499 -314 135 -43 237 -55 403 -49 174 6 293 35 446
107 734 351 899 1308 322 1881 -179 177 -379 281 -628 324 -106 18 -292 18
-397 -1z m-316 -299 c71 -37 59 -158 -31 -303 -83 -135 -183 -222 -255 -222
-64 0 -114 79 -99 158 9 46 76 182 119 241 45 60 105 117 136 130 38 15 97 13
130 -4z m714 -475 c112 -42 177 -136 184 -265 4 -75 2 -84 -30 -145 -23 -44
-48 -76 -82 -101 -59 -45 -104 -59 -188 -59 -52 0 -77 6 -126 31 -34 16 -73
45 -88 62 -96 114 -100 274 -9 393 71 93 218 129 339 84z m952 -227 c5 -32 8
-107 7 -168 -4 -430 -253 -821 -648 -1017 -77 -39 -198 -80 -290 -99 -93 -20
-343 -17 -445 5 -290 62 -540 227 -715 472 -45 63 -92 151 -84 158 15 14 243
154 341 210 114 64 337 172 342 164 2 -1 17 -23 33 -48 162 -237 513 -268 718
-64 86 85 131 184 142 311 l6 72 56 12 c132 28 294 47 408 48 l122 1 7 -57z"/>
<path d="M1398 1583 c12 -2 30 -2 40 0 9 3 -1 5 -23 4 -22 0 -30 -2 -17 -4z"/>
<path d="M1292 1544 c-17 -14 -37 -35 -43 -47 -8 -16 -5 -15 13 6 12 15 37 36
53 47 17 11 26 20 20 20 -5 0 -25 -12 -43 -26z"/>
<path d="M1505 1564 c6 -5 28 -25 50 -44 l40 -35 -30 33 c-17 19 -39 38 -50
44 -11 6 -15 7 -10 2z"/>
<path d="M1229 1458 c-5 -38 -5 -127 -1 -123 6 6 11 135 6 135 -2 0 -5 -6 -5
-12z"/>
<path d="M1613 1385 c0 -27 2 -38 4 -22 2 15 2 37 0 50 -2 12 -4 0 -4 -28z"/>
<path d="M1236 1323 c-6 -14 36 -93 49 -93 3 0 -1 10 -10 23 -8 13 -12 27 -8
32 5 4 2 4 -6 0 -11 -6 -13 -4 -8 9 4 11 3 15 -4 10 -8 -4 -9 1 -4 15 8 25 0
29 -9 4z"/>
<path d="M1564 1259 c-10 -12 -32 -30 -49 -40 -16 -11 -24 -19 -17 -19 12 0
103 79 91 80 -3 0 -14 -10 -25 -21z"/>
<path d="M1300 1224 c0 -9 63 -35 73 -31 7 3 0 8 -15 12 -16 4 -28 10 -28 14
0 4 -7 8 -15 8 -8 0 -15 -2 -15 -3z"/>
<path d="M1408 1183 c6 -2 18 -2 25 0 6 3 1 5 -13 5 -14 0 -19 -2 -12 -5z"/>
</g>
</svg>
